# AST/ASF file generated using VICON BodyLanguage
# -----------------------------------------------
:version 1.10
:name VICON
:units
  mass 1.0
  length 0.45
  angle deg
:documentation
   .ast/.asf automatically generated from VICON data using
   VICON BodyBuilder and BodyLanguage model FoxedUp or BRILLIANT.MOD
:root
   order TX TY TZ RX RY RZ
   axis XYZ
   position 0 0 0  
   orientation 0 0 0 
:bonedata
  begin
     id 1 
     name lhipjoint
     direction 0.635376 -0.686425 0.353719 
     length 2.47244 
     axis 0 0 0  XYZ
  end
  begin
     id 2 
     name lfemur
     direction 0.34202 -0.939693 0  
     length 7.25268  
     axis 0 0 20  XYZ
    dof rx ry rz
    limits (-160.0 20.0)
           (-70.0 70.0)
           (-60.0 70.0)
  end
  begin
     id 3 
     name ltibia
     direction 0.34202 -0.939693 0   
     length 7.6767   
     axis 0 0 20   XYZ
    dof rx
    limits (-10.0 170.0)
  end
  begin
     id 4 
     name lfoot
     direction 0.0803374 -0.220725 0.972022   
     length 2.22945   
     axis -90 7.62852e-016 20   XYZ
    dof rx rz
    limits (-45.0 90.0)
           (-70.0 20.0)
  end
  begin
     id 5 
     name ltoes
     direction 1.53579e-011 -4.21994e-011 1   
     length 1.11848   
     axis -90 7.62852e-016 20   XYZ
    dof rx
    limits (-90.0 20.0)
  end
  begin
     id 6 
     name rhipjoint
     direction -0.664428 -0.664335 0.342336   
     length 2.55466  
     axis 0 0 0  XYZ 
  end
  begin
     id 7 
     name rfemur
     direction -0.34202 -0.939693 0   
     length 6.83172   
     axis 0 0 -20   XYZ
    dof rx ry rz
    limits (-160.0 20.0)
           (-70.0 70.0)
           (-70.0 60.0)
  end
  begin
     id 8 
     name rtibia
     direction -0.34202 -0.939693 0   
     length 7.62692   
     axis 0 0 -20   XYZ
    dof rx
    limits (-10.0 170.0)
 end
 begin
     id 9 
     name rfoot
     direction -0.0949276 -0.260811 0.960711   
     length 2.19684  
     axis -90 -7.62852e-016 -20   XYZ
    dof rx rz
    limits (-45.0 90.0)
           (-20.0 70.0)
  end
  begin
     id 10 
     name rtoes
     direction -1.53543e-011 -4.2183e-011 1   
     length 1.09848   
     axis -90 -7.62852e-016 -20   XYZ
    dof rx
    limits (-90.0 20.0)
  end
  begin
     id 11 
     name lowerback
     direction 0.0118782 0.999815 -0.0151555   
     length 2.15772   
     axis 0 0 0   XYZ
    dof rx ry rz
    limits (-20.0 45.0)
           (-30.0 30.0)
           (-30.0 30.0)
  end
  begin
     id 12 
     name upperback
     direction 0.00130825 0.999065 0.0432113   
     length 2.14863   
     axis 0 0 0   XYZ
    dof rx ry rz
    limits (-20.0 45.0)
           (-30.0 30.0)
           (-30.0 30.0)
  end
  begin
     id 13 
     name thorax
     direction -0.00347005 0.998773 0.0494011   
     length 2.14936   
     axis 0 0 0   XYZ
    dof rx ry rz
    limits (-20.0 45.0)
           (-30.0 30.0)
           (-30.0 30.0)
  end
  begin
     id 14 
     name lowerneck
     direction -0.0262159 0.99424 0.103921   
     length 1.69373   
     axis 0 0 0   XYZ
    dof rx ry rz
    limits (-20.0 45.0)
           (-30.0 30.0)
           (-30.0 30.0)
  end
  begin
     id 15 
     name upperneck
     direction 0.0353511 0.977394 -0.20845   
     length 1.70857   
     axis 0 0 0   XYZ
    dof rx ry rz
    limits (-20.0 45.0)
           (-30.0 30.0)
           (-30.0 30.0)
  end
  begin
     id 16
     name head
     direction 0.0139214 0.996594 -0.0812836  
     length 1.72777  
     axis 0 0 0   XYZ
    dof rx ry rz
    limits (-20.0 45.0)
           (-30.0 30.0)
           (-30.0 30.0)
  end
  begin
     id 17 
     name lclavicle
     direction 0.841247 0.537205 -0.0609508  
     length 3.55371  
     axis 0 0 0   XYZ
    dof ry rz
    limits (-20.0 10.0)
           (0.0 20.0)
  end
  begin
     id 18 
     name lhumerus
     direction 1 -4.48964e-011 1.60116e-018   
     length 4.91377   
     axis -180 -30 -90   XYZ
    dof rx ry rz
    limits (-60.0 90.0)
           (-90.0 90.0)
           (-90.0 90.0)
  end
  begin
     id 19
     name lradius
     direction 1 -4.48989e-011 -8.93847e-027   
     length 3.00291   
     axis -180 -30 -90   XYZ
    dof rx
    limits (-10.0 170.0)
  end
  begin
     id 20
     name lwrist
     direction 1 -4.48932e-011 -7.31504e-027   
     length 1.50145   
     axis 5.74121e-015 90 90   XYZ
    dof ry
    limits (-180.0 0.0)
 end
  begin
     id 21 
     name lhand
     direction 1 -4.48971e-011 -1.46301e-026   
     length 0.450922   
     axis 9.33524e-015 90 90   XYZ
    dof rx rz
    limits (-90.0 90.0)
           (-45.0 45.0)
  end
  begin
     id 22 
     name lfingers
     direction 1 -4.49039e-011 -2.92602e-026   
     length 0.363545   
     axis 1.86705e-014 90 90   XYZ
    dof rx
    limits (0.0 90.0)
  end
  begin
     id 23
     name lthumb
     direction 0.707107 -6.34941e-011 0.707107   
     length 0.52198   
     axis -90 45 2.85299e-015   XYZ
    dof rx rz
    limits (-45.0 45.0)
           (-45.0 45.0)
  end
  begin
     id 24 
     name rclavicle
     direction -0.825079 0.56158 -0.0622297   
     length 3.39909  
     axis 0 0 0   XYZ 
    dof ry rz
    limits (-10.0 20.0)
           (-20.0 0.0)
  end
  begin
     id 25 
     name rhumerus
     direction -1 -4.48965e-011 1.61691e-027  
     length 4.86725   
     axis -180 30 90   XYZ
    dof rx ry rz
    limits (-90.0 60.0)
           (-90.0 90.0)
           (-90.0 90.0)
  end
  begin
     id 26 
     name rradius
     direction -1 -4.48964e-011 -2.25776e-027   
     length 3.17144   
     axis -180 30 90   XYZ
    dof rx
    limits (-10.0 170.0)
  end
  begin
     id 27 
     name rwrist
     direction -1 -4.48961e-011 -7.31504e-027   
     length 1.58572   
     axis 5.74121e-015 -90 -90   XYZ
    dof ry
    limits (-180.0 0.0)
  end
  begin
     id 28
     name rhand
     direction -1 -4.49013e-011 -1.46301e-026   
     length 0.419368   
     axis 9.33524e-015 -90 -90   XYZ
    dof rx rz
    limits (-90.0 90.0)
           (-45.0 45.0)
  end
  begin
     id 29
     name rfingers
     direction -1 -4.489e-011 -2.92602e-026   
     length 0.338105   
     axis 1.86705e-014 -90 -90   XYZ
    dof rx
    limits (0.0 90.0)
  end
  begin
     id 30
     name rthumb
     direction -0.707107 -6.35022e-011 0.707107   
     length 0.485453   
     axis -90 -45 -2.85299e-015   XYZ
    dof rx rz
    limits (-45.0 45.0)
           (-45.0 45.0)
  end
:hierarchy
  begin
    root lhipjoint rhipjoint lowerback
    lhipjoint lfemur
    lfemur ltibia
    ltibia lfoot
    lfoot ltoes
    rhipjoint rfemur
    rfemur rtibia
    rtibia rfoot
    rfoot rtoes
    lowerback upperback
    upperback thorax
    thorax lowerneck lclavicle rclavicle
    lowerneck upperneck
    upperneck head
    lclavicle lhumerus
    lhumerus lradius
    lradius lwrist
    lwrist lhand lthumb
    lhand lfingers
    rclavicle rhumerus
    rhumerus rradius
    rradius rwrist
    rwrist rhand rthumb
    rhand rfingers
  end

#!OML:ASF H:\Swim 2\Project 1\Capture day 1\Session 1\male.ASF
:FULLY-SPECIFIED
:DEGREES
727
root 4.23264 14.5569 10.1255 118.724 -84.427 -15.3757
lowerback -14.2528 5.84321 5.1168
upperback -5.4743 7.20049 -3.98507
thorax 3.27555 3.53727 -5.8143
lowerneck -18.3307 -5.46504 -5.42926
upperneck 22.2571 -7.31648 4.76585
head 10.5578 -3.22599 1.53713
rclavicle 4.77083e-015 9.93923e-015
rhumerus 73.972 -27.7117 -9.5456
rradius 27.5555
rwrist -12.2829
rhand -26.7598 -5.50839
rfingers 7.12502
rthumb -0.188063 -35.488
lclavicle 4.77083e-015 9.93923e-015
lhumerus 91.3579 30.681 9.22345
lradius 31.4592
lwrist 64.2699
lhand -37.4863 -13.0595
lfingers 7.12502
lthumb -10.5438 16.656
rfemur -74.4106 6.22186 14.4578
rtibia 65.0544
rfoot 8.51774 -3.11955
rtoes 10.8515
lfemur -74.1625 12.665 -36.2856
ltibia 70.5394
lfoot -7.0548 6.91268
ltoes -3.26128
728
root 4.28102 14.5669 10.1134 119.112 -84.4474 -15.6988
lowerback -14.2368 5.87258 5.04688
upperback -5.52352 7.24857 -3.96657
thorax 3.21128 3.55856 -5.74969
lowerneck -18.2328 -5.56002 -5.38955
upperneck 21.7628 -7.42508 4.74847
head 10.3637 -3.27955 1.51094
rclavicle 3.18055e-014 8.7664e-014
rhumerus 73.1448 -27.8443 -8.53755
rradius 27.4487
rwrist -11.2613
rhand -26.276 -5.39165
rfingers 7.12502
rthumb 0.279167 -35.3712
lclavicle 3.18055e-014 8.7664e-014
lhumerus 91.009 30.6537 8.68765
lradius 31.3021
lwrist 63.9683
lhand -37.5514 -12.9659
lfingers 7.12502
lthumb -10.6066 16.7465
rfemur -74.8479 6.05074 14.6294
rtibia 66.1168
rfoot 8.60275 -3.00743
rtoes 10.6535
lfemur -74.4783 12.9343 -36.556
ltibia 71.5573
lfoot -7.29755 6.93471
ltoes -3.16527
729
root 4.3294 14.578 10.1012 119.357 -84.4591 -15.8843
lowerback -14.2098 5.90336 4.9761
upperback -5.57018 7.29907 -3.94236
thorax 3.14315 3.58123 -5.67903
lowerneck -18.1209 -5.64987 -5.33082
upperneck 21.2253 -7.52428 4.70686
head 10.1504 -3.33136 1.47568
rclavicle 8.74653e-014 -5.14852e-014
rhumerus 72.2414 -27.9599 -7.45424
rradius 27.4047
rwrist -10.5982
rhand -25.7688 -5.42508
rfingers 7.12502
rthumb 0.769035 -35.4034
lclavicle 8.74653e-014 -5.14852e-014
lhumerus 90.6878 30.5988 8.23613
lradius 31.2397
lwrist 63.8698
lhand -37.6831 -12.7461
lfingers 7.12502
lthumb -10.7336 16.9597
rfemur -75.2872 5.88208 14.8093
rtibia 67.1944
rfoot 8.72025 -2.87743
rtoes 10.5188
lfemur -74.8088 13.198 -36.8129
ltibia 72.6031
lfoot -7.55965 6.973
ltoes -3.13621
730
root 4.37757 14.5903 10.0889 119.602 -84.4739 -16.0784
lowerback -14.1737 5.93781 4.88435
upperback -5.61287 7.35791 -3.91535
thorax 3.07266 3.60852 -5.59276
lowerneck -18.0044 -5.74768 -5.26006
upperneck 20.6597 -7.63481 4.65648
head 9.92758 -3.38924 1.43486
rclavicle 7.15625e-014 7.85199e-014
rhumerus 71.2491 -28.0543 -6.28563
rradius 27.4249
rwrist -10.2028
rhand -25.2623 -5.66575
rfingers 7.12502
rthumb 1.25827 -35.6418
lclavicle 7.15625e-014 7.85199e-014
lhumerus 90.4428 30.5067 7.94197
lradius 31.249
lwrist 64.0021
lhand -37.8016 -12.4338
lfingers 7.12502
lthumb -10.8479 17.2661
rfemur -75.7287 5.71725 14.9818
rtibia 68.2899
rfoot 8.85491 -2.72652
rtoes 10.4222
lfemur -75.1509 13.461 -37.074
ltibia 73.6778
lfoot -7.84145 7.02438
ltoes -3.12319
731
root 4.42552 14.6038 10.077 119.782 -84.4843 -16.2153
lowerback -14.1259 5.97596 4.78606
upperback -5.65166 7.42314 -3.8839
thorax 2.99926 3.63937 -5.49795
lowerneck -17.874 -5.8458 -5.17886
upperneck 20.0549 -7.74494 4.59439
head 9.68912 -3.44876 1.38993
rclavicle -8.5875e-014 1.41137e-014
rhumerus 70.1904 -28.1329 -5.06741
rradius 27.4916
rwrist -9.94813
rhand -24.7332 -6.09211
rfingers 7.12502
rthumb 1.76922 -36.0645
lclavicle -8.5875e-014 1.41137e-014
lhumerus 90.3063 30.3732 7.85548
lradius 31.3293
lwrist 64.3556
lhand -37.902 -11.9759
lfingers 7.12502
lthumb -10.9448 17.7188
rfemur -76.168 5.55451 15.1568
rtibia 69.4039
rfoot 8.98269 -2.57089
rtoes 10.3692
lfemur -75.5073 13.7183 -37.3266
ltibia 74.7861
lfoot -8.12891 7.08571
ltoes -3.07367
